<?xml version="1.0" encoding="UTF-8" standalone="no"?>
<!-- Created with Inkscape (http://www.inkscape.org/) -->

<svg
   width="210mm"
   height="297mm"
   viewBox="0 0 210 297"
   version="1.1"
   id="svg5"
   inkscape:version="1.2-alpha (0bd5040e, 2022-02-05)"
   sodipodi:docname="case2.svg"
   xmlns:inkscape="http://www.inkscape.org/namespaces/inkscape"
   xmlns:sodipodi="http://sodipodi.sourceforge.net/DTD/sodipodi-0.dtd"
   xmlns="http://www.w3.org/2000/svg"
   xmlns:svg="http://www.w3.org/2000/svg">
  <sodipodi:namedview
     id="namedview7"
     pagecolor="#ffffff"
     bordercolor="#000000"
     borderopacity="0.25"
     inkscape:pageshadow="2"
     inkscape:pageopacity="0.0"
     inkscape:pagecheckerboard="0"
     inkscape:blackoutopacity="0.0"
     inkscape:document-units="mm"
     showgrid="false"
     inkscape:zoom="1"
     inkscape:cx="234"
     inkscape:cy="390"
     inkscape:window-width="1920"
     inkscape:window-height="1057"
     inkscape:window-x="-8"
     inkscape:window-y="-8"
     inkscape:window-maximized="1"
     inkscape:current-layer="layer1" />
  <defs
     id="defs2" />
  <g
     inkscape:groupmode="layer"
     id="layer2"
     inkscape:label="下書き"
     style="display:none">
    <path
       id="rect4694"
       style="vector-effect:non-scaling-stroke;fill:none;stroke:#ff0000;stroke-width:0.00151056;stroke-opacity:1;-inkscape-stroke:hairline"
       d="m 32.510834,43.347778 h 71.999996 v 47 H 32.510834 Z" />
    <path
       id="rect5218"
       style="vector-effect:non-scaling-stroke;fill:none;stroke:#ff0000;stroke-width:0.00279829;stroke-opacity:1;-inkscape-stroke:hairline"
       d="m 35.510834,46.347778 h 65.999996 v 41 H 35.510834 Z" />
    <rect
       style="vector-effect:non-scaling-stroke;fill:none;fill-opacity:1;stroke:#ff0000;stroke-width:0.00168855;stroke-opacity:1;-inkscape-stroke:hairline"
       id="rect19275"
       width="1"
       height="47"
       x="32.510838"
       y="43.347778" />
    <rect
       style="vector-effect:non-scaling-stroke;fill:none;fill-opacity:1;stroke:#ff0000;stroke-width:0.0011509;stroke-opacity:1;-inkscape-stroke:hairline"
       id="rect19277"
       width="1"
       height="47"
       x="103.51083"
       y="43.347778" />
    <rect
       style="vector-effect:non-scaling-stroke;fill:none;fill-opacity:1;stroke:#ff0000;stroke-width:0.00103533;stroke-opacity:1;-inkscape-stroke:hairline"
       id="rect19279"
       width="71.999992"
       height="1"
       x="32.510838"
       y="89.347778" />
    <rect
       style="vector-effect:non-scaling-stroke;fill:none;fill-opacity:1;stroke:#ff0000;stroke-width:0.000816587;stroke-opacity:1;-inkscape-stroke:hairline"
       id="rect19281"
       width="71.999992"
       height="1"
       x="32.510838"
       y="43.347778" />
    <rect
       style="vector-effect:non-scaling-stroke;fill:none;fill-opacity:1;stroke:#ff0000;stroke-width:0.000627781;stroke-miterlimit:4;stroke-dasharray:none;stroke-opacity:1;-inkscape-stroke:hairline"
       id="rect92125"
       width="79.999992"
       height="3"
       x="28.510834"
       y="40.347778" />
    <rect
       style="vector-effect:non-scaling-stroke;fill:none;fill-opacity:1;stroke:#ff0000;stroke-width:0.00162092;stroke-miterlimit:4;stroke-dasharray:none;stroke-opacity:1;-inkscape-stroke:hairline"
       id="rect95525"
       width="79.999992"
       height="20"
       x="28.510838"
       y="90.872124" />
    <path
       style="vector-effect:non-scaling-stroke;fill:none;stroke:#ff0000;stroke-width:0.00070004;stroke-linecap:butt;stroke-linejoin:miter;stroke-miterlimit:4;stroke-dasharray:none;stroke-opacity:1;-inkscape-stroke:hairline"
       d="M 28.510838,101.14152 H 108.51083"
       id="path101222" />
    <rect
       style="vector-effect:non-scaling-stroke;fill:none;fill-opacity:1;stroke:#ff0000;stroke-width:0.000751252;stroke-miterlimit:4;stroke-dasharray:none;stroke-opacity:1;-inkscape-stroke:hairline"
       id="rect101528"
       width="55"
       height="11.244792"
       x="41.010834"
       y="95.519127" />
  </g>
  <g
     inkscape:label="Layer 1"
     inkscape:groupmode="layer"
     id="layer1">
    <path
       id="path10821"
       style="display:inline;vector-effect:non-scaling-stroke;fill:none;stroke:#000000;stroke-width:0.0032183;stroke-opacity:1;-inkscape-stroke:hairline"
       d="m 37.010834,87.347779 a 1.5000001,1.5000001 0 0 1 -1.5,1.499999 1.5000001,1.5000001 0 0 1 -1.5,-1.499999 1.5000001,1.5000001 0 0 1 1.5,-1.500001 1.5000001,1.5000001 0 0 1 1.5,1.500001 z" />
    <path
       id="path10087"
       style="display:inline;vector-effect:non-scaling-stroke;fill:none;stroke:#000000;stroke-width:0.0032183;stroke-opacity:1;-inkscape-stroke:hairline"
       d="m 103.01083,87.347779 a 1.5000001,1.5000001 0 0 1 -1.5,1.499999 1.5000001,1.5000001 0 0 1 -1.5,-1.499999 1.5000001,1.5000001 0 0 1 1.5,-1.500001 1.5000001,1.5000001 0 0 1 1.5,1.500001 z" />
    <path
       id="path9403"
       style="display:inline;vector-effect:non-scaling-stroke;fill:none;stroke:#000000;stroke-width:0.0032183;stroke-opacity:1;-inkscape-stroke:hairline"
       d="m 103.01083,46.347779 a 1.5000001,1.5000001 0 0 1 -1.5,1.499999 1.5000001,1.5000001 0 0 1 -1.5,-1.499999 1.5000001,1.5000001 0 0 1 1.5,-1.500001 1.5000001,1.5000001 0 0 1 1.5,1.500001 z" />
    <path
       id="path6474"
       style="display:inline;vector-effect:non-scaling-stroke;fill:none;stroke:#000000;stroke-width:0.0032183;stroke-opacity:1;-inkscape-stroke:hairline"
       d="m 37.010834,46.347779 a 1.5000001,1.5000001 0 0 1 -1.499999,1.499999 1.5000001,1.5000001 0 0 1 -1.500001,-1.499999 1.5000001,1.5000001 0 0 1 1.500001,-1.500001 1.5000001,1.5000001 0 0 1 1.499999,1.500001 z" />
    <path
       id="path50649"
       style="vector-effect:non-scaling-stroke;fill:none;stroke:#000000;stroke-width:0.00264583;-inkscape-stroke:hairline"
       d="m 33.510841,84.347778 c 0,-11.784919 -3e-6,-23.215084 -3e-6,-35.000003 m 1.999995,35.000002 h -1.999996 m 4.999995,3.000002 v 1.999991 m -2.999998,-4.999993 c 1.656854,0 3,1.343146 3,3 m 59.999995,0 v 1.999996 m 3.000001,-4.999995 h 1.99999 m -1.99999,-35.000001 h 2 m -5.000001,-3.000002 v -1.999991 m 3.000001,4.999993 c -1.656861,0 -3.000001,-1.343146 -3.000001,-3 m -59.999996,-2 h 59.999996 m 5.000001,5 v 34.998682 m -5.001031,5.001318 H 38.510833 m 59.999996,-2.000001 c 0,-1.656854 1.34315,-3 3.000001,-3 M 38.510833,46.347773 v -1.999996 m -3.000002,4.999995 H 33.51084 m 4.999993,-2.999998 c 0,1.656854 -1.343146,3 -3,3" />
    <path
       id="path83011"
       style="display:inline;vector-effect:non-scaling-stroke;fill:none;stroke:#000000;stroke-width:0.0032183;stroke-opacity:1;-inkscape-stroke:hairline"
       d="m 42.510834,101.14152 a 1.5000001,1.5000001 0 0 1 -1.5,1.5 1.5000001,1.5000001 0 0 1 -1.5,-1.5 1.5000001,1.5000001 0 0 1 1.5,-1.499997 1.5000001,1.5000001 0 0 1 1.5,1.499997 z" />
    <path
       id="path84373"
       style="display:inline;vector-effect:non-scaling-stroke;fill:none;stroke:#000000;stroke-width:0.0032183;stroke-opacity:1;-inkscape-stroke:hairline"
       d="m 97.510834,101.14152 a 1.5000001,1.5000001 0 0 1 -1.5,1.5 1.5000001,1.5000001 0 0 1 -1.5,-1.5 1.5000001,1.5000001 0 0 1 1.5,-1.499995 1.5000001,1.5000001 0 0 1 1.5,1.499995 z" />
    <rect
       style="vector-effect:non-scaling-stroke;fill:none;fill-opacity:1;stroke:#000000;stroke-width:0.000700042;stroke-miterlimit:4;stroke-dasharray:none;stroke-opacity:1;-inkscape-stroke:hairline"
       id="rect109068"
       width="80"
       height="70.524345"
       x="28.510832"
       y="40.347778" />
  </g>
</svg>
